
            <svg data-logo="logo" xmlns="http://www.w3.org/2000/svg" viewBox="0 0 203 40">
                <g id="logogram" transform="translate(0, 0)"><path d="M20.0277 0C17.4013 0 14.8005 0.517371 12.374 1.5224C9.94748 2.52754 7.7428 4.00069 5.88554 5.85783C4.0284 7.71509 2.55525 9.91977 1.55011 12.3463C0.545081 14.7728 0.02771 17.3736 0.02771 20C0.02771 22.6264 0.545081 25.2272 1.55011 27.6537C2.55525 30.0802 4.0284 32.2849 5.88554 34.1422C7.7428 35.9993 9.94748 37.4725 12.374 38.4776C14.8005 39.4826 17.4013 40 20.0277 40V30C18.7145 30 17.4141 29.7414 16.2009 29.2387C14.9876 28.7362 13.8852 27.9997 12.9566 27.0711C12.0281 26.1425 11.2915 25.0401 10.789 23.8269C10.2863 22.6136 10.0277 21.3133 10.0277 20C10.0277 18.6867 10.2863 17.3864 10.789 16.1731C11.2915 14.9599 12.0281 13.8575 12.9566 12.9289C13.8852 12.0003 14.9876 11.2638 16.2009 10.7613C17.4141 10.2586 18.7145 10 20.0277 10V0Z" fill="#0F52FF"/><path d="M20.0278 26.6666C23.7097 26.6666 26.6944 23.6819 26.6944 20C26.6944 16.318 23.7097 13.3334 20.0278 13.3334C16.3458 13.3334 13.3611 16.318 13.3611 20C13.3611 23.6819 16.3458 26.6666 20.0278 26.6666Z" fill="#0F52FF"/><path d="M0.02771 20C0.02771 22.6264 0.545081 25.2272 1.55011 27.6537C2.55525 30.0802 4.0284 32.2849 5.88554 34.1422C7.7428 35.9993 9.94748 37.4725 12.374 38.4776C14.8005 39.4826 17.4013 40 20.0277 40C22.6541 40 25.2549 39.4826 27.6814 38.4776C30.1079 37.4725 32.3126 35.9993 34.1699 34.1422C36.027 32.2849 37.5002 30.0802 38.5053 27.6537C39.5103 25.2272 40.0277 22.6264 40.0277 20H30.0277C30.0277 21.3133 29.7691 22.6136 29.2665 23.8269C28.7639 25.0401 28.0274 26.1425 27.0988 27.0711C26.1702 27.9997 25.0678 28.7362 23.8546 29.2387C22.6413 29.7414 21.341 30 20.0277 30C18.7145 30 17.4141 29.7414 16.2009 29.2387C14.9876 28.7362 13.8852 27.9997 12.9566 27.0711C12.0281 26.1425 11.2915 25.0401 10.789 23.8269C10.2863 22.6136 10.0277 21.3133 10.0277 20H0.02771Z" fill="#5BD0F4"/><path d="M26.6945 20C26.6945 18.2319 25.9921 16.5363 24.7419 15.286C23.4917 14.0357 21.796 13.3333 20.0279 13.3333C18.2598 13.3333 16.5641 14.0357 15.3138 15.286C14.0635 16.5363 13.3611 18.2319 13.3611 20H20.0279H26.6945Z" fill="#5BD0F4"/></g>
                <g id="logotype" transform="translate(47, 1.5)"><path fill="#199FD9" d="M21.86 31.48L17.88 26.25L22.34 26.25L24.70 29.27L26.80 31.74L31.05 37.12L26.18 37.12L23.28 33.50L21.86 31.48ZM19.48 35.34L19.48 35.34Q16.12 35.34 13.43 33.80Q10.73 32.27 9.17 29.34Q7.61 26.42 7.61 22.29L7.61 22.29Q7.61 18.13 9.17 15.20Q10.73 12.27 13.43 10.73Q16.12 9.19 19.48 9.19L19.48 9.19Q22.87 9.19 25.55 10.73Q28.23 12.27 29.80 15.20Q31.36 18.13 31.36 22.29L31.36 22.29Q31.36 26.42 29.80 29.34Q28.23 32.27 25.55 33.80Q22.87 35.34 19.48 35.34ZM19.48 30.71L19.48 30.71Q21.47 30.71 22.94 29.74Q24.42 28.78 25.24 26.89Q26.06 25.00 26.06 22.29L26.06 22.29Q26.06 19.53 25.24 17.65Q24.42 15.76 22.94 14.79Q21.47 13.83 19.48 13.83L19.48 13.83Q17.52 13.83 16.03 14.80Q14.54 15.77 13.72 17.66Q12.90 19.55 12.90 22.29L12.90 22.29Q12.90 25.00 13.72 26.88Q14.54 28.76 16.03 29.74Q17.52 30.71 19.48 30.71ZM39.68 35.24L39.68 35.24Q37.70 35.24 36.21 34.38Q34.73 33.51 33.91 31.90Q33.10 30.28 33.10 28.04L33.10 28.04L33.10 15.89L38.23 15.89L38.23 27.16Q38.23 28.93 39.15 29.94Q40.08 30.95 41.68 30.95L41.68 30.95Q42.78 30.95 43.61 30.48Q44.45 30.01 44.92 29.11Q45.39 28.22 45.39 26.95L45.39 26.95L45.39 15.89L50.52 15.89L50.52 35L45.68 35L45.61 30.23L45.90 30.23Q45.15 32.64 43.60 33.94Q42.06 35.24 39.68 35.24ZM57.74 35L52.62 35L52.62 15.89L57.74 15.89L57.74 35ZM55.18 13.40L55.18 13.40Q54.02 13.40 53.20 12.63Q52.38 11.86 52.38 10.77L52.38 10.77Q52.38 9.67 53.20 8.90Q54.02 8.13 55.18 8.13L55.18 8.13Q56.34 8.13 57.17 8.90Q58.00 9.66 58.00 10.77L58.00 10.77Q58.00 11.86 57.17 12.63Q56.34 13.40 55.18 13.40ZM68.37 35.38L68.37 35.38Q65.48 35.38 63.39 34.14Q61.30 32.90 60.16 30.68Q59.02 28.47 59.02 25.53L59.02 25.53Q59.02 22.56 60.16 20.35Q61.30 18.13 63.39 16.89Q65.48 15.65 68.37 15.65L68.37 15.65Q70.06 15.65 71.50 16.10Q72.93 16.54 74.05 17.36Q75.16 18.18 75.87 19.36Q76.59 20.54 76.87 22.01L76.87 22.01L72.10 22.90Q71.94 22.15 71.62 21.56Q71.29 20.97 70.83 20.55Q70.37 20.13 69.76 19.91Q69.16 19.69 68.42 19.69L68.42 19.69Q67.06 19.69 66.12 20.42Q65.19 21.16 64.72 22.47Q64.25 23.79 64.25 25.52L64.25 25.52Q64.25 27.22 64.72 28.53Q65.19 29.84 66.12 30.59Q67.06 31.34 68.42 31.34L68.42 31.34Q69.16 31.34 69.77 31.11Q70.39 30.88 70.87 30.45Q71.35 30.01 71.67 29.39Q71.99 28.78 72.13 28.01L72.13 28.01L76.90 28.88Q76.63 30.40 75.91 31.59Q75.19 32.78 74.08 33.63Q72.97 34.49 71.52 34.93Q70.08 35.38 68.37 35.38ZM86.28 25.48L82.79 29.41L82.79 23.24L83.56 23.24L89.82 15.89L95.75 15.89L87.49 25.48L86.28 25.48ZM83.27 35L78.15 35L78.15 9.54L83.27 9.54L83.27 35ZM96.11 35L90.07 35L84.33 26.63L87.77 22.99L96.11 35ZM105.23 35L105.23 35L98.65 35L98.65 30.51L104.99 30.51Q107.45 30.51 109.12 29.63Q110.78 28.76 111.62 26.93Q112.46 25.10 112.46 22.25L112.46 22.25Q112.46 19.41 111.61 17.59Q110.77 15.77 109.12 14.90Q107.47 14.03 105.03 14.03L105.03 14.03L98.53 14.03L98.53 9.54L105.33 9.54Q109.16 9.54 111.92 11.07Q114.68 12.60 116.17 15.44Q117.65 18.29 117.65 22.25L117.65 22.25Q117.65 26.23 116.17 29.09Q114.68 31.94 111.90 33.47Q109.11 35 105.23 35ZM96.29 9.54L101.50 9.54L101.50 35L96.29 35L96.29 9.54ZM127.72 35.38L127.72 35.38Q124.85 35.38 122.75 34.14Q120.64 32.90 119.51 30.68Q118.37 28.47 118.37 25.53L118.37 25.53Q118.37 22.56 119.51 20.35Q120.64 18.13 122.75 16.89Q124.85 15.65 127.72 15.65L127.72 15.65Q130.61 15.65 132.70 16.89Q134.79 18.13 135.93 20.35Q137.07 22.56 137.07 25.53L137.07 25.53Q137.07 28.47 135.93 30.68Q134.79 32.90 132.70 34.14Q130.61 35.38 127.72 35.38ZM127.72 31.34L127.72 31.34Q129.09 31.34 130.01 30.58Q130.93 29.82 131.39 28.50Q131.85 27.17 131.85 25.52L131.85 25.52Q131.85 23.82 131.39 22.51Q130.93 21.19 130.01 20.44Q129.09 19.69 127.72 19.69L127.72 19.69Q126.35 19.69 125.44 20.44Q124.52 21.19 124.06 22.51Q123.60 23.82 123.60 25.52L123.60 25.52Q123.60 27.17 124.06 28.50Q124.52 29.82 125.44 30.58Q126.35 31.34 127.72 31.34ZM146.91 35.38L146.91 35.38Q144.02 35.38 141.93 34.14Q139.83 32.90 138.70 30.68Q137.56 28.47 137.56 25.53L137.56 25.53Q137.56 22.56 138.70 20.35Q139.83 18.13 141.93 16.89Q144.02 15.65 146.91 15.65L146.91 15.65Q148.60 15.65 150.04 16.10Q151.47 16.54 152.58 17.36Q153.69 18.18 154.41 19.36Q155.13 20.54 155.40 22.01L155.40 22.01L150.63 22.90Q150.48 22.15 150.16 21.56Q149.83 20.97 149.37 20.55Q148.91 20.13 148.30 19.91Q147.69 19.69 146.96 19.69L146.96 19.69Q145.59 19.69 144.66 20.42Q143.73 21.16 143.26 22.47Q142.79 23.79 142.79 25.52L142.79 25.52Q142.79 27.22 143.26 28.53Q143.73 29.84 144.66 30.59Q145.59 31.34 146.96 31.34L146.96 31.34Q147.69 31.34 148.31 31.11Q148.93 30.88 149.40 30.45Q149.88 30.01 150.21 29.39Q150.53 28.78 150.67 28.01L150.67 28.01L155.44 28.88Q155.16 30.40 154.45 31.59Q153.73 32.78 152.62 33.63Q151.51 34.49 150.06 34.93Q148.62 35.38 146.91 35.38Z"/></g>
                
            </svg>
        